<svg width="68" height="83" viewBox="0 0 68 83" fill="none" xmlns="http://www.w3.org/2000/svg">
<path fill-rule="evenodd" clip-rule="evenodd" d="M43.1979 53.8947C43.0289 53.6185 43.1158 53.2558 43.3935 53.0853C43.6712 52.9172 44.0359 53.0037 44.2073 53.2799L47.9164 59.6924C48.013 59.8269 48.0468 59.995 48.0106 60.1559C47.9768 60.3192 47.8729 60.4561 47.7305 60.5401C47.5856 60.6218 47.4141 60.6386 47.2547 60.5882C47.0978 60.5377 46.9698 60.4201 46.9022 60.2712L43.1931 53.8636L43.1979 53.8947ZM20.1466 24.0884C20.4243 24.2493 20.5208 24.6024 20.3591 24.8786C20.1997 25.1548 19.8447 25.2509 19.5646 25.0899L13.1219 21.4011H13.1243C12.878 21.2281 12.8055 20.8967 12.9577 20.6373C13.1074 20.3756 13.431 20.2723 13.7062 20.3948L20.1489 24.0837L20.1466 24.0884ZM30.9456 18.5551C30.9166 18.8529 30.663 19.0787 30.3612 19.0787C30.0618 19.0787 29.8082 18.8529 29.7792 18.5551V11.1773C29.7599 11.014 29.8155 10.8483 29.9265 10.7258C30.0376 10.6033 30.197 10.5337 30.3612 10.5337C30.5278 10.5337 30.6872 10.6033 30.7983 10.7258C30.9093 10.8483 30.9625 11.014 30.9456 11.1773L30.9456 18.5551ZM24.8 19.876L21.0909 13.4684L21.0933 13.4708C20.9315 13.1946 20.5765 13.0985 20.2988 13.2594C20.0211 13.4179 19.9245 13.771 20.0839 14.0496L23.793 20.4621C23.9572 20.7383 24.3122 20.832 24.5923 20.6711C24.87 20.5101 24.9642 20.1547 24.8024 19.8761L24.8 19.876ZM37.7095 34.7447C36.8208 33.2148 35.5821 31.9155 34.0921 30.9501C33.9955 31.1926 33.9134 31.44 33.8458 31.6946C33.6212 32.5159 33.5633 33.3757 33.6719 34.2211C33.7806 35.0593 34.0559 35.8686 34.4833 36.6011C36.6059 40.2587 35.3478 44.9374 31.6701 47.0529L21.0812 53.1194C17.4108 55.2281 12.7166 53.9768 10.5987 50.3263C8.48085 46.6759 9.73909 42.0097 13.4095 39.9009L24.0225 33.8152C25.1115 33.1908 26.3407 32.845 27.5963 32.8066C27.6567 31.5481 27.9078 30.3041 28.3377 29.1177C26.1764 29.0216 24.0297 29.5428 22.1558 30.6187L11.5429 36.6996C8.01733 38.7242 5.84647 42.4659 5.84647 46.5151C5.84888 50.5618 8.01975 54.3036 11.5478 56.3257C15.0733 58.3503 19.4154 58.3479 22.9409 56.3233L33.5612 50.2304C36.1692 48.7174 38.0696 46.2389 38.8472 43.3377C39.6247 40.4365 39.2138 37.3459 37.7095 34.7447ZM57.3998 23.4548C58.4212 25.2128 58.699 27.2998 58.1725 29.2595C57.6461 31.2192 56.359 32.8932 54.5914 33.9067L43.9785 39.9636C42.8894 40.588 41.6603 40.9338 40.4046 40.9722C40.3442 42.2307 40.0931 43.4747 39.6633 44.6611C41.8245 44.7572 43.9713 44.2384 45.8451 43.1601L56.4605 37.06L56.4581 37.0624C59.8291 34.9634 61.8576 31.2697 61.8068 27.3163C61.7585 23.3633 59.6408 19.7203 56.219 17.7049C52.7997 15.69 48.569 15.5963 45.0602 17.4552L34.4398 23.5481C31.0084 25.5078 28.8472 29.1006 28.7337 33.0322C28.6202 36.9661 30.5714 40.6769 33.882 42.8287C33.981 42.5861 34.0631 42.3388 34.1307 42.0842C34.3553 41.2629 34.4132 40.4031 34.3022 39.5577C34.1959 38.7195 33.9206 37.9102 33.4932 37.1777C31.3948 33.5272 32.6456 28.8752 36.2992 26.7572L46.9196 20.6595C50.5924 18.5677 55.2726 19.8163 57.3998 23.4548ZM37.0554 55.2161C37.0844 54.9183 37.338 54.6926 37.6398 54.6926C37.9392 54.6926 38.1928 54.9184 38.2218 55.2161V62.5939C38.2411 62.7596 38.1855 62.9229 38.0745 63.0454C37.9634 63.1679 37.804 63.2376 37.6398 63.2376C37.4732 63.2376 37.3138 63.1679 37.2027 63.0454C37.0917 62.9229 37.0385 62.7596 37.0554 62.5939L37.0554 55.2161ZM47.8544 49.6828L54.2971 53.3717H54.2947C54.57 53.4942 54.8936 53.3885 55.0433 53.1291C55.1954 52.8698 55.123 52.5383 54.8767 52.3654L48.434 48.6765H48.4364C48.1563 48.5156 47.8013 48.6117 47.6419 48.8879C47.4801 49.1641 47.5767 49.5171 47.8544 49.678L47.8544 49.6828Z" fill="white"/>
</svg>
