<svg width="100" height="115" viewBox="0 0 100 115" fill="none" xmlns="http://www.w3.org/2000/svg">
<path d="M50 22.08C35.664 22.08 24 32.8109 24 46C24 59.1891 35.664 69.92 50 69.92C64.336 69.92 76 59.1891 76 46C76 32.8109 64.336 22.08 50 22.08ZM50 66.24C37.869 66.24 28 57.1605 28 46C28 34.8395 37.869 25.76 50 25.76C62.131 25.76 72 34.8395 72 46C72 57.1605 62.131 66.24 50 66.24ZM48 16.56V11.04C48 10.0243 48.896 9.20001 50 9.20001C51.104 9.20001 52 10.0243 52 11.04V16.56C52 17.5757 51.104 18.4 50 18.4C48.896 18.4 48 17.5757 48 16.56ZM78.284 19.9787C79.065 20.6973 79.065 21.862 78.284 22.5805L74.041 26.4841C73.651 26.8438 73.139 27.0232 72.627 27.0232C72.115 27.0232 71.603 26.8438 71.213 26.4841C70.432 25.7655 70.432 24.6008 71.213 23.8823L75.456 19.9787C76.236 19.2602 77.504 19.2602 78.284 19.9787ZM90 46C90 47.0157 89.104 47.84 88 47.84H82C80.896 47.84 80 47.0157 80 46C80 44.9843 80.896 44.16 82 44.16H88C89.104 44.16 90 44.9843 90 46ZM78.284 69.4195C79.065 70.1381 79.065 71.3028 78.284 72.0213C77.894 72.381 77.382 72.5604 76.87 72.5604C76.358 72.5604 75.846 72.381 75.456 72.0213L71.213 68.1177C70.432 67.3992 70.432 66.2345 71.213 65.516C71.993 64.7974 73.261 64.7974 74.041 65.516L78.284 69.4195ZM52 75.44V80.96C52 81.9757 51.104 82.8 50 82.8C48.896 82.8 48 81.9757 48 80.96V75.44C48 74.4243 48.896 73.6 50 73.6C51.104 73.6 52 74.4243 52 75.44ZM28.787 65.516C29.568 66.2345 29.568 67.3992 28.787 68.1177L24.544 72.0213C24.154 72.381 23.642 72.5604 23.13 72.5604C22.618 72.5604 22.106 72.381 21.716 72.0213C20.935 71.3028 20.935 70.1381 21.716 69.4195L25.959 65.516C26.739 64.7974 28.006 64.7974 28.787 65.516ZM20 46C20 47.0157 19.104 47.84 18 47.84H12C10.896 47.84 10 47.0157 10 46C10 44.9843 10.896 44.16 12 44.16H18C19.104 44.16 20 44.9843 20 46ZM21.716 22.5805C20.935 21.862 20.935 20.6973 21.716 19.9787C22.496 19.2602 23.764 19.2602 24.544 19.9787L28.787 23.8823C29.568 24.6008 29.568 25.7655 28.787 26.4841C28.397 26.8438 27.885 27.0232 27.373 27.0232C26.861 27.0232 26.349 26.8438 25.959 26.4841L21.716 22.5805ZM50 29.44C40.075 29.44 32 36.869 32 46C32 55.131 40.075 62.56 50 62.56C59.925 62.56 68 55.131 68 46C68 36.869 59.925 29.44 50 29.44ZM57.414 44.5795L50.414 51.0195C50.024 51.3792 49.512 51.5587 49 51.5587C48.488 51.5587 47.976 51.3792 47.586 51.0195L42.586 46.4195C41.805 45.701 41.805 44.5363 42.586 43.8178C43.366 43.0992 44.634 43.0992 45.414 43.8178L49 47.116L54.586 41.9778C55.366 41.2592 56.634 41.2592 57.414 41.9778C58.195 42.6954 58.195 43.861 57.414 44.5795Z" fill="white"/>
</svg>
