<svg width="78" height="97" viewBox="0 0 78 97" fill="none" xmlns="http://www.w3.org/2000/svg">
<path d="M42.3654 52.8363C42.2213 52.7633 41.936 52.6903 41.648 52.6903C40.7173 52.6903 39.6426 53.7793 39.6426 54.6494C39.6426 55.0845 39.3573 55.3764 38.9252 55.3764C38.6399 55.3764 38.4959 55.2304 38.3518 55.0873C37.6345 55.5953 36.7757 55.8844 35.8451 55.8844H28.9702C32.3356 57.2625 35.6318 58.1354 38.7117 58.4974C44.944 59.2946 51.2456 58.3515 56.9765 55.6683C56.9045 55.5223 56.9045 55.5223 56.8324 55.4494C56.4751 55.0873 55.5444 55.1603 54.8271 55.2304C54.3257 55.2304 53.8243 55.3034 53.3951 55.2304C53.179 55.1575 52.9657 55.0115 52.8217 54.7954C52.4644 53.9253 51.6749 53.3443 50.6723 53.3443C50.243 53.3443 49.8856 53.4173 49.5976 53.6334C49.3815 53.7794 49.0962 53.7794 48.8802 53.6334C48.6642 53.4875 48.5229 53.2714 48.5229 52.9795L48.5257 52.9093C48.5257 52.1824 48.0243 51.6743 47.3069 51.6743C47.0908 51.6743 46.8055 51.8202 46.5202 51.8932C46.3042 51.9662 46.0909 51.9662 45.9468 51.8932C45.7308 51.8203 45.6615 51.6041 45.5895 51.4582C45.4455 50.9502 45.0162 50.5881 44.5148 50.5881C43.8694 50.5881 43.3681 51.0961 43.3681 51.7501V51.8961C43.5121 52.1852 43.4401 52.4771 43.2241 52.6932C43.0108 52.9093 42.6534 52.9822 42.3654 52.8363ZM50.4589 55.5223C50.4589 55.4493 50.5309 55.3764 50.603 55.3764C50.675 55.3034 50.747 55.3034 50.747 55.2304C50.963 55.1574 51.1763 55.2304 51.3204 55.3764C51.3924 55.4493 51.3924 55.5223 51.4644 55.5223C51.5364 55.5223 51.5364 55.6683 51.5364 55.7412C51.5364 55.8872 51.4644 56.0303 51.3924 56.1033C51.1763 56.2493 51.035 56.2493 50.891 56.2493C50.747 56.2493 50.6057 56.1763 50.5337 56.1033C50.4617 56.0303 50.3897 55.8844 50.3897 55.7412C50.3897 55.6683 50.3897 55.5953 50.4589 55.5223ZM44.7308 53.7793C44.7308 53.7064 44.8028 53.6334 44.8748 53.6334C45.0909 53.4145 45.4482 53.4145 45.6615 53.6334C45.7335 53.7064 45.8055 53.8523 45.8055 53.9955C45.8055 54.0684 45.8055 54.1414 45.7335 54.2144C45.7335 54.2874 45.6615 54.3603 45.5895 54.3603C45.4455 54.5063 45.3042 54.5063 45.1602 54.5063C45.0161 54.5063 44.8749 54.4333 44.8028 54.3603C44.7308 54.2874 44.6588 54.1414 44.6588 53.9983C44.6588 53.9253 44.6588 53.8523 44.7308 53.7793ZM43.4401 56.1033C43.7254 56.3924 43.7254 56.7573 43.5121 56.9734C43.368 57.0463 43.2268 57.1193 43.0827 57.1193C42.9387 57.1193 42.7974 57.0463 42.7254 56.9734L42.6534 56.9004C42.4374 56.6815 42.4374 56.3194 42.6534 56.1033C42.8667 55.8843 43.2268 55.8844 43.4401 56.1033Z" fill="white"/>
<path d="M22.0258 36.9419H25.0339C25.3912 36.9419 25.7513 36.6528 25.7513 36.215C25.7513 35.7799 25.394 35.488 25.0339 35.488H22.0258C21.5965 35.488 21.3084 35.7771 21.3084 36.215C21.3084 36.6528 21.6657 36.9419 22.0258 36.9419Z" fill="white"/>
<path d="M23.6716 24.3147L26.4636 25.9846C26.6077 26.0576 26.6797 26.0576 26.8209 26.0576C27.037 26.0576 27.2503 25.9117 27.3943 25.7685C27.6104 25.4065 27.5383 25.0416 27.1782 24.8255L24.389 23.1527C24.1037 22.9338 23.6716 23.0067 23.4583 23.3716C23.2422 23.7337 23.3143 24.0957 23.6716 24.3147Z" fill="white"/>
<path d="M33.6294 19.2348C33.7014 19.5238 33.9867 19.7428 34.2747 19.7428C34.3468 19.7428 34.4188 19.6698 34.4908 19.7428C34.8481 19.5968 35.0642 19.2348 34.9921 18.8727L34.0615 15.4626C33.9174 15.1005 33.5601 14.8816 33.2028 14.9545C32.8455 15.1005 32.6295 15.4626 32.7015 15.8246L33.6294 19.2348Z" fill="white"/>
<path d="M72.6655 35.4179H69.6574C69.2281 35.4179 68.94 35.707 68.94 36.1448C68.94 36.5799 69.2973 36.8718 69.6574 36.8718H72.6655C73.0228 36.8718 73.3829 36.5827 73.3829 36.1448C73.3801 35.707 73.0228 35.4179 72.6655 35.4179Z" fill="white"/>
<path d="M67.865 25.8386C68.009 25.8386 68.081 25.7656 68.2223 25.7656L71.0143 24.1686C71.3717 23.9497 71.5157 23.5876 71.2996 23.2255C71.0836 22.8635 70.7263 22.7175 70.3689 22.9365L67.5769 24.5335C67.2196 24.7524 67.0756 25.1145 67.2916 25.4766C67.3636 25.6927 67.6489 25.8386 67.865 25.8386Z" fill="white"/>
<path d="M60.2004 19.5236H60.4165C60.7018 19.5236 60.9898 19.3046 61.0618 19.0156L61.9925 15.6784C62.0645 15.3163 61.8485 14.8813 61.4912 14.8083C61.1339 14.7354 60.7045 14.9543 60.6325 15.3164L59.7019 18.6535C59.6271 19.0156 59.8431 19.4506 60.2004 19.5236Z" fill="white"/>
<path d="M49.8165 52.0394C50.1018 51.9664 50.4619 51.8934 50.7472 51.8934C51.1045 51.8934 51.3925 51.9664 51.6778 52.0394C51.6778 51.9664 51.7499 51.8934 51.8219 51.8934L52.6085 51.4584C51.7499 49.9344 49.8858 49.2074 48.2404 49.9344L47.523 50.2234C48.5977 50.3694 49.4564 51.0234 49.8165 52.0394Z" fill="white"/>
<path d="M58.2674 55.0141C58.6247 54.8681 58.9128 54.725 59.2701 54.506L63.3529 52.2551C63.3529 51.966 63.2089 51.7471 63.1369 51.4579C62.4195 49.9339 60.4141 49.207 58.7688 49.8609L53.2539 52.836C53.5392 53.1251 53.8273 53.417 54.0406 53.779H54.758C55.7607 53.7061 57.0487 53.6331 57.8381 54.433C58.0514 54.579 58.1954 54.7951 58.2674 55.0141Z" fill="white"/>
<path d="M44.7309 44.6351C43.4429 41.8761 41.2934 39.1199 38.4266 36.1451C38.1413 35.856 38.1413 35.4181 38.4266 35.202C38.7119 34.9831 39.144 34.9129 39.3573 35.202C42.0801 37.961 44.0855 40.5741 45.5175 43.184C45.9469 39.1929 44.6589 35.71 41.9361 33.5315C39.072 31.2805 35.2025 30.9184 31.6932 32.4425C32.6239 33.4585 33.1252 34.9826 33.6986 36.5796C35.0614 40.6436 36.4929 45.1431 44.7309 44.6351Z" fill="white"/>
<path d="M65.3583 52.9095L59.9875 55.8117C53.326 59.5137 45.9496 60.8919 38.5709 59.8758C34.416 59.2948 29.976 57.9897 25.464 55.8117C25.32 55.7387 25.1787 55.5928 25.1067 55.3767C25.0347 55.3037 25.0347 55.2307 25.0347 55.0876C25.0347 54.6525 25.32 54.3607 25.7521 54.3607H35.8509C37.6403 54.3607 39.1443 52.8366 39.1443 51.0235C39.1443 49.2104 37.6403 47.6863 35.8509 47.6863L23.8184 46.9594C16.9435 46.7405 13.7911 49.6454 9.35151 53.6366L8.77815 54.1446C7.55936 55.3796 6.27137 56.3956 4.69534 57.5548C4.90586 63.7239 6.4819 69.0231 9.27671 73.3766C12.6421 72.1416 22.0985 70.9095 31.9818 70.9095C41.8651 70.9095 41.9367 70.8365 49.1716 68.5883L50.1023 68.2992C58.0519 65.6131 68.6521 58.6466 68.796 58.574C70.3721 57.558 70.8734 55.5259 69.8707 54.0019C68.868 52.402 66.8624 51.8935 65.3583 52.9095Z" fill="white"/>
<path d="M50.0299 24.531C50.246 24.2419 50.6753 24.2419 50.9606 24.458C51.2459 24.6769 51.2459 25.112 51.0326 25.401C49.2433 27.579 48.0965 30.2651 47.5951 33.5289C52.7526 32.6589 53.4673 28.6649 54.1847 24.8198C54.47 23.0768 54.8301 21.3366 55.5448 20.0287H55.1874C51.0326 20.0287 47.8115 21.7717 46.2352 24.8927C45.0164 27.3598 45.0884 30.2648 46.3792 32.5859C46.9498 29.3946 48.1685 26.709 50.0299 24.531Z" fill="white"/>
<path d="M49.6725 42.9652C51.0326 40.2063 52.8967 37.7392 55.2594 35.4912C55.5447 35.2021 55.9768 35.2723 56.1901 35.4912C56.4754 35.7803 56.4061 36.2181 56.1901 36.4343C53.6113 38.8284 51.6779 41.5144 50.3179 44.6354C56.1209 44.9975 57.9825 41.2253 59.6304 37.5232C60.6332 35.4182 61.5638 33.3862 63.2119 32.2972C59.7025 30.9191 56.0487 31.3541 53.257 33.5322C50.5314 35.6372 49.3152 39.047 49.6725 42.9652Z" fill="white"/>
</svg>
